<svg xmlns="http://www.w3.org/2000/svg" viewBox="0 0 15.28 13.65"><defs><style>.cls-1{fill:#f15a24;}</style></defs><g id="Layer_2" data-name="Layer 2"><g id="Layer_3" data-name="Layer 3"><path class="cls-1" d="M2.34,8.39,13.78,8a1.5,1.5,0,0,0,0-3L2.34,5.39a1.5,1.5,0,0,0,0,3Z"/><path class="cls-1" d="M1.5,13.64l10.88-.38a1.5,1.5,0,0,0,0-3L1.5,10.64A1.53,1.53,0,0,0,0,12.14a1.51,1.51,0,0,0,1.5,1.5Z"/><path class="cls-1" d="M1.78,3h9.49a1.52,1.52,0,0,0,1.5-1.5A1.53,1.53,0,0,0,11.27,0H1.78A1.51,1.51,0,0,0,.28,1.5,1.52,1.52,0,0,0,1.78,3Z"/></g></g></svg>