<svg xmlns="http://www.w3.org/2000/svg" viewBox="0 0 1451.47 2864.89"><defs><style>.cls-1{fill:#ff7bac;}.cls-2{fill:#712755;}.cls-3{fill:none;stroke:#f15a24;stroke-miterlimit:10;stroke-width:4px;}.cls-4{fill:#12a05c;}.cls-5{fill:#f15a24;}.cls-6{fill:#ffd73d;}</style></defs><g id="Layer_2" data-name="Layer 2"><g id="Hand_Rechts"><path class="cls-1" d="M1228.07,1336.25c-15.84,23.63-17.65,431.67-17.65,449.31s3.53,51.76-8.23,51.76-25.88-68.22-25.88-91.75,40-574.61,7.06-643.42c-19.13-39.93-144.37-29.81-177.11,0-21,19.09-22.86,307-22.86,335.24s-16.46,218.78-16.46,254.07,2.35,65.87-14.12,61.17-16.47-54.11-14.11-75.28l12.78-579.08c0-52.64-159.12-73-191.4-31.44-31.73,40.89-7.23,372.91-7.23,404.67s-7.06,224.67-23.53,224.67-14.11-44.7-14.11-77.64,2.69-322.38-.12-343.46c-2.78-20.81,4.82-656.36,4.82-689.29s11.76-418.75,9.41-454S745.8,0,654.05,0,529.37,47.05,529.37,131.74,517.6,816.32,517.6,868.08s-11.76,399.93-16.46,470.5-37.64,359.94-37.64,397.58-32.94,162.32-32.94,192.91,21.95,287,16.86,310.53-21.56-329.35-40.38-367S277.65,1475,258.83,1432.68s-58.15-172.46-96.46-207c-54.1-48.81-148.2-65.87-160,0s21.18,475.21,65.87,534S91.8,2030.23,136.5,2169c44.38,137.84-18,257.11,147.06,385.48a41.31,41.31,0,0,1,6.34,6.06c12.58,14.9,64.74,76.67,112.43,133.08,36.52,43.19,109.33,124.42,160,141.15,137.17,45.32,445.52,39.81,577.55-18.82,225-99.93,259.63-295.56,310.66-925,6.57-81-22.41-216.2-28.36-299.49-7.06-98.81,19.89-237.89-8.24-264.63C1380.19,1294.8,1254,1297.6,1228.07,1336.25Z"/><path class="cls-2" d="M87.91,1810s129.63-273-84.45-581.14C3.46,1228.82-5.38,1667.32,87.91,1810Z"/><path class="cls-3" d="M244.71,1938.48s-110,28.23-118.52,35.28"/><path class="cls-3" d="M211.78,1973.76s-88.83,11.77-85.59,21.18"/><path class="cls-3" d="M229.42,1994.94s-97.06,5.88-103.23,16.47"/><path class="cls-3" d="M177.81,2336.05s19.85-22.93,34-17.64"/><path class="cls-3" d="M222.36,2346.64s-34.55,7.83-44.55,21.17"/><path class="cls-3" d="M229.42,2367.81s-35.13,24.75-44,35.29"/><path class="cls-4" d="M43.92,1697.58s40.18-61.47,77.17-8.8c0,0-1.84,121.15-33.18,121.18C72,1810,43.92,1697.58,43.92,1697.58Z"/><path class="cls-3" d="M654.64,1176.85s-58.23,8.82-67,14.11"/><path class="cls-3" d="M647.58,1217.43s-30,5.29-54.69,0"/><path class="cls-3" d="M647.58,1265.66s-45.87,5.88-54.69,0"/><path class="cls-3" d="M907,1085.1s-75.87-1.76-83.81,7.06"/><path class="cls-3" d="M889.3,1122.15s-63.52,7.06-74.1,0"/><path class="cls-3" d="M898.12,1157.44s-81.16,8.82-82.92,0"/><path class="cls-3" d="M1138.08,1191s-77.63,7.06-84.69,15.88"/><path class="cls-3" d="M1138.08,1238.6s-54.69,10.59-63.52,0"/><path class="cls-3" d="M1129.26,1307.41s-60,5.3-65.28,0"/><path class="cls-3" d="M1371,1517.81s-86.45-16.31-97-9.26"/><path class="cls-3" d="M1362.16,1542.08s-91.75,12.35-88.22,0"/><path class="cls-3" d="M1352.16,1586.77s-74.1-7-75.87-15.88"/><path class="cls-3" d="M679.34,432.28s-74.1-5.3-86.45,0"/><path class="cls-3" d="M679.34,457s-77.63-3.53-86.45,0"/><path class="cls-3" d="M661.7,488.12s-51.17-7.67-68.81,0"/><path class="cls-5" d="M660.16,2542.51A554.46,554.46,0,0,0,714.57,2421c13.4-42.68,22.12-86.74,27.2-131.16,5.25-46,6.45-92.47,4.74-138.76-1.85-50.22-7-100.25-14-150-7-50.11-15.7-100-24.64-149.73q-1.67-9.24-3.32-18.49c-.57-3.16-5.39-1.82-4.83,1.33,8.88,49.33,17.76,98.66,25.1,148.25s13.11,99.25,15.78,149.22c2.49,46.54,2.26,93.25-2,139.68-4,44.53-11.75,88.78-24,131.81-12.09,42.58-28.67,83.91-50.43,122.49q-4.08,7.24-8.41,14.36c-1.67,2.76,2.65,5.28,4.32,2.53Z"/><path class="cls-5" d="M1033.31,1893.07a181.49,181.49,0,0,0,19.83,56.31,215.17,215.17,0,0,0,36.08,48.11,242.59,242.59,0,0,0,49.28,38.09,304.39,304.39,0,0,0,61.32,27.18,400,400,0,0,0,65.57,14.89c2.82.4,5.63.78,8.45,1.14a2.51,2.51,0,0,0,2.5-2.5,2.56,2.56,0,0,0-2.5-2.5,409.65,409.65,0,0,1-64.77-13.4,308.56,308.56,0,0,1-60.88-25,242,242,0,0,1-50.11-36.2,213.71,213.71,0,0,1-37-45.88,180.65,180.65,0,0,1-21.59-54.26c-.51-2.41-1-4.83-1.39-7.26a2.51,2.51,0,0,0-3.07-1.75,2.56,2.56,0,0,0-1.75,3.07Z"/><path class="cls-5" d="M827.89,1873.88a723.11,723.11,0,0,1,91.89,57.36,739.47,739.47,0,0,1,81.92,69.9,746.89,746.89,0,0,1,130,171.84,719.9,719.9,0,0,1,44.73,97.93q2.3,6.26,4.48,12.55c1,3,5.88,1.72,4.82-1.33a726.63,726.63,0,0,0-43.4-100,744.68,744.68,0,0,0-57.34-91.92,758.3,758.3,0,0,0-70.41-83.22,750.28,750.28,0,0,0-81.16-71.76,724.5,724.5,0,0,0-91.32-59.43q-5.83-3.19-11.74-6.28c-2.85-1.5-5.38,2.82-2.52,4.31Z"/><path class="cls-5" d="M939,2730.81q9-28.68,15.5-58,6.51-29.19,10.58-58.86,2.31-16.87,3.86-33.84a2.52,2.52,0,0,0-2.5-2.5,2.55,2.55,0,0,0-2.5,2.5q-2.68,29.58-7.8,58.86t-12.68,58.2q-4.26,16.28-9.28,32.33c-1,3.08,3.87,4.39,4.82,1.33Z"/><path class="cls-6" d="M1411.9,1712.92l25.24.69s-1-14.48-4-32.71l-14.81-3.89Z"/><path class="cls-2" d="M1013.66,1613.87c-14.15,24.46-5.65,56.13-11.08,83.86s-10,56.16-6,84.13,17.87,55.81,42.07,70.39,59.33,12,77-10c16.74-20.91,13.92-50.63,13.5-77.42-.45-28.93,2.91-58,.37-86.78s-11.9-58.51-33.29-78S1024.13,1595.76,1013.66,1613.87Z"/><path class="cls-5" d="M983.81,1530.89c1.34,20.42,1.32,40.93,1.2,61.39-.16,24.16-.64,48.33-.89,72.49-.25,24.39-.32,48.78.53,73.15.71,20.68,1.94,41.49,5.45,61.91a183,183,0,0,0,6.94,27.45c4,11.92,9.23,23.7,16.87,33.78,7.84,10.35,18,18.36,30.44,22.41,7.29,2.38,15,3.43,22.57,4.14,7.43.69,14.93,1.31,22.4,1.36s15-.58,22-3.15a41.64,41.64,0,0,0,15.63-10.21c8.43-8.77,13.07-20.56,16-32.19,3.19-12.62,4.71-25.71,6.34-38.61,1.76-14,3.19-28,4.5-42.1,2.71-29.13,4.9-58.3,8-87.4,3-28.29,6.73-56.6,13.15-84.34q2.16-9.39,4.81-18.67c.88-3.1-3.94-4.43-4.82-1.33-7.52,26.32-12,53.43-15.4,80.55-3.64,28.76-6,57.66-8.52,86.54-2.4,27.62-4.8,55.28-8.89,82.71-3.31,22.14-8.41,51.88-32.68,60.43-6.83,2.4-14.1,2.89-21.29,2.76-7.37-.14-14.77-.72-22.1-1.44-13.78-1.34-27.33-4.62-38.1-13.77-9.4-8-16-18.65-21-29.81a162.18,162.18,0,0,1-10.1-30.91c-4.15-18.65-5.61-37.89-6.58-56.94-1.2-23.49-1.34-47-1.21-70.56.12-24.24.59-48.49.87-72.74.24-21.25.41-42.52-.39-63.76-.17-4.38-.38-8.76-.67-13.14-.21-3.19-5.21-3.22-5,0Z"/><path class="cls-2" d="M796,1597c-11.17,19.3-11.46,44.31-15.74,66.2s-.93,44.34,2.23,66.42,14.1,44.06,33.21,55.57,46.84,9.51,60.78-7.9c13.21-16.51,11-40,10.66-61.12-.35-22.85,2.3-45.75.29-68.51S878,1601.41,861.1,1586,804.22,1582.65,796,1597Z"/><path class="cls-5" d="M751.36,1471.5c1.4,21.44,1.65,43,1.83,64.43.21,25,.19,50,.53,75,.33,24.38.94,48.78,2.69,73.11,1.45,20,3.42,40.22,8.31,59.7,5.76,23,15.53,47.93,35.28,62.44,12,8.82,26.66,11.39,41.2,12.61,14.39,1.21,30.1,3,43.8-2.7,23.94-10,30.25-38.45,33.58-61.48,3.78-26.22,5.1-52.74,6.08-79.19,1.05-28.29,1.58-56.61,3.2-84.88,1.52-26.57,3.87-53.25,9.47-79.31q1.88-8.71,4.31-17.29c.88-3.1-3.94-4.42-4.82-1.33-7,24.56-10.29,50.09-12.41,75.49-2.31,27.75-3.08,55.6-3.95,83.43-.84,26.85-1.64,53.75-4.2,80.5a312.52,312.52,0,0,1-5.12,36.31c-2.46,11.43-6.19,23.36-13.81,32.48a37.57,37.57,0,0,1-13.71,10.47c-6.66,2.9-14,3.64-21.23,3.66s-14.57-.59-21.81-1.21a103.08,103.08,0,0,1-22.47-4c-24.84-7.88-37.71-32.31-45.18-55.56-5.94-18.5-8.64-37.79-10.44-57.09-2.18-23.38-3-46.88-3.5-70.35-.52-24.8-.56-49.6-.69-74.41-.12-22.36-.24-44.73-1.2-67.07q-.3-6.9-.74-13.79c-.21-3.19-5.21-3.22-5,0Z"/><path class="cls-2" d="M1270.22,1756.11c-10.52,18.18-12.2,42.73-16.23,63.34s.53,40.76,3.51,61.55,13.28,41.49,31.27,52.33,44.11,9,57.24-7.44c12.44-15.55,10.35-37.64,10-57.56-.34-21.51-3.84-43.08-5.73-64.51s-2.85-43.5-18.75-58S1278,1742.65,1270.22,1756.11Z"/><path class="cls-5" d="M1211.11,1657.12c1.58,24.09,2.94,48.18,4.56,72.27,1.71,25.39,3.67,50.78,6.44,76.08,2.56,23.31,5.72,46.61,10.65,69.54,4.58,21.32,10.42,43.53,22.91,61.73,6.24,9.08,14.29,17.06,24.22,22,12.44,6.22,26.48,7.33,40.13,8.3,13.08.93,26.84,1.65,39-4.11,9.87-4.67,17-13.43,21.64-23.14,4.77-10,7.3-20.92,9.06-31.83s3.28-22.16,4.64-33.28c2.94-24.26,5.21-48.59,7.56-72.91,2.45-25.26,5-50.52,8.25-75.68,3.08-23.44,6.81-46.86,12.36-69.85q1.86-7.76,4-15.41c.89-3.1-3.93-4.43-4.82-1.33-6.22,21.76-10.38,44.08-13.75,66.45-3.7,24.5-6.42,49.15-8.91,73.8-2.47,24.47-4.67,49-7.29,73.43-1.23,11.46-2.54,22.91-4.08,34.33-1.43,10.6-2.8,21.31-5.29,31.72-2.45,10.24-6.08,20.77-12.84,29a38.29,38.29,0,0,1-11.64,9.65,44.93,44.93,0,0,1-18.17,4.62,146.64,146.64,0,0,1-19.77-.47,188.49,188.49,0,0,1-20.24-2.17,63.85,63.85,0,0,1-18.42-6,54.88,54.88,0,0,1-12.78-9.41c-15.6-15.31-22.81-37.36-28-58-5.43-21.55-8.88-43.58-11.64-65.61-3.08-24.66-5.22-49.43-7-74.21-1.78-24.3-3.2-48.63-4.71-73q-.53-8.3-1.06-16.57c-.21-3.19-5.22-3.21-5,0Z"/><path class="cls-4" d="M794.59,1598.4c6.62-11.64,21.16-17.87,34.44-19.59,5.14-.67,16.43-.77,21.47.47,13.91,3.4,24.24,20.75,27.57,30.7-8.09,5.12-19.62,7.39-29,9.3a69.19,69.19,0,0,1-13.49,1.78c-10.45.07-20.38-4.18-30-8.35-4.75-2.07-11.13-4.91-12-10"/><path class="cls-4" d="M1014.79,1612.64c8-12.59,25.39-19.32,41.33-21.18,6.17-.73,19.71-.83,25.76.5,16.7,3.69,29.1,22.45,33.09,33.21-9.7,5.54-23.54,8-34.79,10.06a92.84,92.84,0,0,1-16.19,1.93c-12.54.07-24.46-4.52-36-9-5.69-2.23-13.35-5.31-14.37-10.83"/><path class="cls-4" d="M1269.71,1757c5.92-10.4,19.9-16,31.77-17.5,4.6-.6,14.68-.69,19.18.42,12.43,3,21.66,18.53,24.63,27.42-7.22,4.58-17.52,6.6-25.9,8.31a62.89,62.89,0,0,1-12.05,1.6c-9.33,0-18.21-3.74-26.77-7.47-4.24-1.85-9.94-4.38-10.7-9"/></g></g></svg>