<svg xmlns="http://www.w3.org/2000/svg" viewBox="0 0 1366 284.03"><defs><style>.cls-1{fill:#718fc0;}</style></defs><g id="Layer_2" data-name="Layer 2"><g id="Layer_23" data-name="Layer 23"><path class="cls-1" d="M1366,229.05s-53.41,60.23-78.45,33a26.19,26.19,0,0,1-5.08-7.57c-6.26-15,6.09-32.07,5.65-48.92-.38-14.31-11.73-26.73-23.33-25.52s-21.09,15.82-19.49,30c.86,7.65,4.41,14.64,4.75,22.35.91,20.64-21.17,31.76-37.46,26.64s-29.77-19.49-45.89-25.36c-44.29-16.15-90.46,35.59-135.28,21.76-29.82-9.2-55.86-46.53-85.27-35.48-22.5,8.47-33.48,42.2-55.67,51.84-28.64,12.44-57.86-23.83-62.8-60.7s5.2-74,7.69-111.24-6.48-81.29-34.5-95.74C778.4-7.51,750.24,6.68,738.2,32.75s-8.76,60.49,5.35,84.94c12.05,20.89,31.15,35.66,39.3,59.23,16.12,46.58-22.56,99.13-63.44,105s-80-18.71-116.9-41.26-77.93-44.26-117.93-32.35c-39.65,11.8-70.35,54.85-110.73,62-42.48,7.53-81.42-26.17-119.15-51.33s-89.15-40.74-120-4c-7.87,9.38-13.42,21.29-20.6,31.48C82,292.12,0,264,0,264v20H1366"/></g></g></svg>