<svg xmlns="http://www.w3.org/2000/svg" viewBox="0 0 1367 402.16"><defs><style>.cls-1{fill:#718fc0;}</style></defs><title>Asset 2</title><g id="Layer_2" data-name="Layer 2"><g id="Ebene_14" data-name="Ebene 14"><path class="cls-1" d="M2,402.16l-2-138s82,28.1,114.12-17.56c7.18-10.2,12.73-22.11,20.6-31.5,30.83-36.73,82.26-21.16,120,4S331.37,278,373.85,270.48c40.38-7.17,71.08-50.23,110.73-62,40-11.91,81.09,9.81,117.93,32.37s76,47.18,116.9,41.27S799,223.61,782.85,177c-8.15-23.58-27.25-38.37-39.3-59.27-14.11-24.46-17.39-58.89-5.35-85S778.4-7.51,800.87,4.08c28,14.46,37,58.53,34.5,95.78s-12.62,74.41-7.69,111.3,34.16,73.17,62.8,60.73c22.19-9.64,33.17-43.4,55.67-51.86,29.41-11.07,55.45,26.28,85.27,35.49,44.82,13.83,91-37.92,135.28-21.77,16.12,5.88,29.61,20.25,45.89,25.37s38.37-6,37.46-26.65c-.34-7.72-3.89-14.71-4.75-22.36-1.6-14.19,7.88-28.8,19.49-30s23,11.21,23.33,25.53c.44,16.86-11.91,33.94-5.65,48.95a26.33,26.33,0,0,0,5.08,7.57c25,27.27,79.45-32,79.45-32l-1,160Z"/></g></g></svg>