<svg xmlns="http://www.w3.org/2000/svg" viewBox="0 0 1367.05 142.28"><defs><style>.cls-1{fill:#12a05c;}</style></defs><g id="Layer_2" data-name="Layer 2"><g id="Ebene_8" data-name="Ebene 8"><path class="cls-1" d="M1367.05,18.28c-67-2.4-51.24,52.26-118,45.47C1222,61,1197.27,46.28,1171.33,37.2s-56.9-11.58-78,7.3c-19.75,17.65-26.54,50.28-49.1,63.24-11.89,6.83-42.73,26.79-56.15,26.54-37.26-.69-57.75-21.44-95-22.14-8.43-.15-17.4-.49-24.34-5.74-25.17-19,4.79-69.36-15.34-94.6C844.57.77,829.54-.54,816.21.15c-14.75.77-33.92,8.85-32,25C786,39.44,794.05,52,798.05,65.28c10.19,33.9,5.1,31.06-8,44-13.86,13.69-38.22-5.33-57-4-21.23,1.51-27.48,21.18-48.71,22.69-26.69,1.9-54.05,3.72-79.69-4.67C555.11,107.11,520.7,56,472.29,36.1a116.66,116.66,0,0,0-86.82-.66c-39,15.38-69.92,51.3-110.07,62.71-43.61,12.4-89.8-6.7-127.65-33.56C124,47.7,87.05,24.28,55.05,40.28,29.43,53.09,5.69,68.41,0,142.28H1367.05Z"/></g></g></svg>