<svg xmlns="http://www.w3.org/2000/svg" viewBox="0 0 1366.02 266.35"><defs><style>.cls-1{fill:#718fc0;}</style></defs><g id="Layer_2" data-name="Layer 2"><g id="Layer_23" data-name="Layer 23"><path class="cls-1" d="M1366,266.35l0-65s-53.41,67.35-78.45,36.86a29.67,29.67,0,0,1-5.08-8.46c-6.26-16.78,6.09-35.87,5.65-54.72-.38-16-11.73-29.9-23.33-28.54s-21.09,17.69-19.49,33.56c.86,8.56,4.41,16.37,4.75,25,.91,23.09-21.17,35.53-37.46,29.8s-29.77-21.79-45.89-28.36c-44.29-18.06-90.46,39.8-135.28,24.34-29.82-10.3-55.86-52.05-85.27-39.68-22.5,9.46-33.48,47.19-55.67,58-28.64,13.92-57.86-26.65-62.8-67.89S832.5,124,835,82.35s8-48.36-16-70c-10-9-39-24-62,3-20.45,24-19.1,47.66-5,75,12,23.36,25.85,44.64,34,71,16.11,52.09-25.71,92.57-66.59,99.17s-80-20.93-116.9-46.14-77.93-49.5-117.93-36.19c-39.65,13.21-70.35,61.35-110.73,69.36-42.48,8.42-81.42-29.27-119.15-57.41s-89.15-45.56-120-4.49c-7.87,10.48-13.42,23.8-20.6,35.2C82,271.89,0,240.49,0,240.49v25.86Z"/></g></g></svg>