<svg xmlns="http://www.w3.org/2000/svg" viewBox="0 0 1365.02 217.28"><defs><style>.cls-1{fill:#12a05c;}</style></defs><title>Asset 8</title><g id="Layer_2" data-name="Layer 2"><g id="Ebene_8" data-name="Ebene 8"><path class="cls-1" d="M1247.07,63.75C1220,61,1195.24,46.28,1169.3,37.2s-56.9-11.58-78,7.3c-19.75,17.65-26.54,50.28-49.1,63.24-11.89,6.83-42.73,26.79-56.15,26.54-37.27-.69-57.75-21.44-95-22.14-8.43-.15-17.4-.49-24.34-5.74-25.17-19,4.79-69.36-15.34-94.6C842.54.77,827.51-.54,814.18.15c-14.75.77-33.92,8.85-32,25,1.74,14.34,18.73,18.61,27.62,29.28,12.71,15.26,5.33,41.71-9.91,53.84S749.8,104,731,105.28c-21.23,1.51-27.48,21.18-48.71,22.69-26.69,1.9-54,3.72-79.69-4.67-49.54-16.19-84-67.29-132.36-87.2a116.66,116.66,0,0,0-86.82-.66c-39,15.38-69.92,51.3-110.08,62.71-43.6,12.4-89.79-6.7-127.64-33.56C121.92,47.7,66.93,15,53,40.28,38.23,67.2,3.21,128.63,0,217.28H1365v-199C1298.06,15.88,1313.78,70.54,1247.07,63.75Z"/></g></g></svg>