<svg xmlns="http://www.w3.org/2000/svg" viewBox="0 0 1368.21 327.62"><defs><style>.cls-1{fill:#ffd73d;}</style></defs><title>Asset 3</title><g id="Layer_2" data-name="Layer 2"><g id="Ebene_9" data-name="Ebene 9"><path class="cls-1" d="M1367.78,327.62v-206c0-38.91,6.52-89.95-31.1-80-15.92,4.22-28.57,17.43-44.78,20.32-21.32,3.8-40.85-11-59.88-21.29S1185.1,26,1173.09,44c-9.73,14.61-2.31,33.86,1,51.1s-3.7,41.16-21.23,40.33c-12.65-.6-20.47-15-20.36-27.66s5.39-24.7,7-37.26c2.11-16.65-3.34-35.08-17-44.78s-35.81-7-44,7.61c-3.31,6-4.09,13-5.64,19.59-8.91,38-48.32,66.31-87.18,62.59-62.56-6-105.41-80.83-168.17-77.63-39.73,2-70.14,35.09-106.65,50.88a129.69,129.69,0,0,1-107.61-2.86C577,72.84,556,51.18,530.55,36.63,485,10.57,425.83,10.12,379.86,35.47c-40.35,22.25-77.53,64.17-122.69,55-38.51-7.83-59.42-49.48-92.56-70.6C113.7-12.58-2.4-7.7,0,52.61c1.74,43,1.74,102,1.74,273Z"/></g></g></svg>