<svg xmlns="http://www.w3.org/2000/svg" viewBox="0 0 1366.34 327.62"><defs><style>.cls-1{fill:#ffd73d;}</style></defs><title>Asset 10</title><g id="Layer_2" data-name="Layer 2"><g id="Ebene_9" data-name="Ebene 9"><path class="cls-1" d="M1334.81,41.63C1318.89,45.85,1306.24,59.06,1290,62c-21.32,3.8-40.84-11-59.88-21.29S1183.23,26,1171.22,44c-9.73,14.61-2.31,33.86,1,51.1s-3.69,41.16-21.23,40.33c-12.65-.6-20.47-15-20.36-27.66s5.39-24.7,7-37.26c2.11-16.65-3.34-35.08-17-44.78s-35.8-7-43.95,7.61c-3.31,6-4.08,13-5.64,19.59-8.91,38-48.31,66.3-87.18,62.59-62.56-6-105.41-80.83-168.17-77.63C775.94,39.89,745.54,73,709,88.75a129.67,129.67,0,0,1-107.6-2.86c-26.26-13-47.29-34.71-72.74-49.26C483.11,10.57,424,10.12,378,35.47c-40.35,22.25-77.54,64.17-122.7,55-38.51-7.83-59.41-49.48-92.56-70.6C111.84-12.58-2.27-7.7.17,52.61c1.52,37.44.2,87-.17,212H1364.91v63h1v-206C1365.91,82.71,1372.43,31.67,1334.81,41.63Z"/></g></g></svg>