<svg xmlns="http://www.w3.org/2000/svg" viewBox="0 0 1366.02 287.3"><defs><style>.cls-1{fill:#718fc0;}</style></defs><title>Asset 15</title><g id="Layer_2" data-name="Layer 2"><g id="Layer_23" data-name="Layer 23"><path class="cls-1" d="M1366,287.3l0-58.14s-53.41,60.25-78.45,33a26.33,26.33,0,0,1-5.08-7.57c-6.26-15,6.09-32.09,5.65-48.95-.38-14.32-11.73-26.75-23.33-25.53s-21.09,15.83-19.49,30c.86,7.65,4.41,14.64,4.75,22.36.91,20.65-21.17,31.78-37.46,26.65s-29.77-19.49-45.89-25.37c-44.29-16.15-90.46,35.6-135.28,21.77C1001.6,246.31,975.56,209,946.15,220c-22.5,8.46-33.48,42.22-55.67,51.86-28.64,12.45-57.86-23.85-62.8-60.73s5.2-74,7.69-111.3-6.48-81.32-34.5-95.78C778.4-7.51,750.24,6.69,738.2,32.77s-8.76,60.51,5.35,85c12.05,20.9,31.15,35.69,39.3,59.27,16.12,46.6-22.56,99.17-63.44,105.07s-80-18.72-116.9-41.27-77.93-44.28-117.93-32.37c-39.65,11.81-70.35,54.87-110.73,62C331.37,278,292.43,244.3,254.7,219.12s-89.15-40.75-120-4c-7.87,9.39-13.42,21.3-20.6,31.5C82,292.26,0,264.16,0,264.16V287.3Z"/></g></g></svg>