<svg xmlns="http://www.w3.org/2000/svg" viewBox="0 0 1368 156.28"><defs><style>.cls-1{fill:#12a05c;}</style></defs><g id="Layer_2" data-name="Layer 2"><g id="Ebene_8" data-name="Ebene 8"><path class="cls-1" d="M1250.05,63.75c-27.11-2.77-51.83-17.47-77.77-26.55s-56.89-11.58-78,7.3c-19.75,17.65-26.54,50.28-49.1,63.24-11.89,6.83-42.73,26.79-56.15,26.54-37.26-.69-57.75-21.44-95-22.14-8.42-.15-17.39-.49-24.34-5.74-25.17-19,4.79-69.36-15.34-94.6C845.52.77,830.49-.54,817.16.15c-14.75.77-33.92,8.85-32,25C786.93,39.44,795,52,799,65.28c10.19,33.9,5.1,31.06-8,44-13.86,13.69-38.22-5.33-57-4-21.23,1.51-27.48,21.18-48.71,22.69-26.69,1.9-54,3.72-79.69-4.67-49.54-16.19-84-67.29-132.36-87.2a116.66,116.66,0,0,0-86.82-.66c-39,15.38-69.92,51.3-110.07,62.71-43.61,12.4-89.8-6.7-127.65-33.56C124.9,47.7,88,24.28,56,40.28,28.53,54,3.21,67.63,0,156.28l1368-9v-129C1301,15.88,1316.76,70.54,1250.05,63.75Z"/></g></g></svg>