<svg xmlns="http://www.w3.org/2000/svg" viewBox="0 0 1366.17 130.62"><defs><style>.cls-1{fill:#ffd73d;}</style></defs><g id="Layer_2" data-name="Layer 2"><g id="Ebene_9" data-name="Ebene 9"><path class="cls-1" d="M1334.81,37.6C1318.89,41.41,1306.24,53.34,1290,56c-21.32,3.44-40.84-9.89-59.88-19.23s-46.92-13.28-58.93,3c-9.73,13.2-2.31,30.59,1,46.15s-3.69,37.18-21.23,36.43c-12.65-.54-20.47-13.54-20.36-25s5.39-22.31,7-33.66c2.11-15-3.34-31.68-17-40.44s-35.8-6.37-43.95,6.88c-3.31,5.38-4.08,11.69-5.64,17.68-8.91,34.34-48.31,59.89-87.18,56.54-62.56-5.39-105.41-73-168.17-70.12C775.94,36,745.54,65.9,709,80.16c-34,13.27-74.44,12.3-107.6-2.59-26.26-11.78-47.29-31.34-72.74-44.49C483.11,9.55,424,9.14,378,32,337.65,52.14,300.46,90,255.3,81.7c-38.51-7.07-59.41-44.7-92.56-63.77C111.84-11.37-2.27-6.95.17,47.52c1.52,33.81.2-29.8-.17,83.1H1365.91s.58,0,0-20.77C1364.91,73.72,1372.43,28.61,1334.81,37.6Z"/></g></g></svg>