<svg xmlns="http://www.w3.org/2000/svg" viewBox="0 0 1366 230.28"><defs><style>.cls-1{fill:#12a05c;}</style></defs><title>Asset 4</title><g id="Layer_2" data-name="Layer 2"><g id="Ebene_8" data-name="Ebene 8"><path class="cls-1" d="M0,230.28c0-175,10-130,43.17-162.13,9.29-9,14.71-22,25.62-27.79C94.28,26.77,122.9,47.7,146.7,64.59c37.85,26.86,84,46,127.65,33.56,40.15-11.41,71-47.33,110.07-62.71a116.66,116.66,0,0,1,86.82.66c48.41,19.91,82.82,71,132.36,87.2,25.64,8.39,53,6.57,79.69,4.67l63.7-4.53c18.77-1.33,38.67-3.09,53.91-15.22s22.62-38.58,9.91-53.84c-8.89-10.67-25.88-14.94-27.62-29.28-2-16.1,17.22-24.18,32-25,13.33-.69,28.36.62,37.15,11.65,20.13,25.24-9.83,75.6,15.34,94.6,7,5.25,15.92,5.59,24.34,5.74l111.79,2.09c13.42.25,27.48.34,39.37-6.49,22.56-13,29.35-45.59,49.1-63.24,21.14-18.88,52.08-16.38,78-7.3s50.66,23.78,77.77,26.55c66.71,6.79,51-47.87,118-45.47v211.6Z"/></g></g></svg>