<svg xmlns="http://www.w3.org/2000/svg" viewBox="0 0 1093.58 25.6"><defs><style>.cls-1{fill:#ff7bac;}</style></defs><g id="Layer_2" data-name="Layer 2"><g id="Ebene_5" data-name="Ebene 5"><path class="cls-1" d="M142.53,19.48a36.39,36.39,0,0,1,5.27-1.42v1.22a29.94,29.94,0,0,0-4.56,1.36c-3.06,1.19-3.4,2.48-3.4,3.47,0,1.8,1.19,2.51,2.75,2.51,1.19,0,1.87-.44,4-2l.68-.51.47.71-1,1c-2,2-3.2,3-5.27,3-2.48,0-4.56-1.43-4.56-4.25C137,22.68,138,21.15,142.53,19.48Zm3.91,5.78V17.51c0-3.33-1-4.15-3.2-4.15a8,8,0,0,0-3.06.62l1.36-1.06-.88,2.93c-.31,1-.82,1.53-1.74,1.53A1.39,1.39,0,0,1,137.39,16c.65-2.59,3.17-4.19,6.57-4.19s5.2,1.6,5.2,5.89v7.2c0,1.53.47,2.08,1.25,2.08a1.69,1.69,0,0,0,1.33-.75l.68.75a3.17,3.17,0,0,1-2.89,1.73C147.66,28.73,146.44,27.37,146.44,25.26Z" transform="translate(-136.95 -3.23)"/><path class="cls-1" d="M155.62,27.2l3.67-.68-1.12,1.87c.07-1.53.1-5,.1-7.14v-15L155.45,6V4.76l5.1-1.53.47.27-.13,4.83v6.53l.1.44V25.7l-.34,3-5-.34Zm14.07-6.73c0-4.39-1.8-6.77-4.38-6.77-1.23,0-2.89.55-5.37,3l-.31-.61c2-3,4.18-4.29,6.49-4.29,3.61,0,6.46,3.1,6.46,8.33s-3,8.67-7,8.67c-2.07,0-4.18-.92-6-4.45l.31-.55c1.76,2.25,3.6,3.13,5.2,3.13C167.58,27,169.69,24.85,169.69,20.47Z" transform="translate(-136.95 -3.23)"/><path class="cls-1" d="M177.65,20.4c0-5.64,3.84-8.57,7.75-8.57s7.75,2.93,7.75,8.57-3.91,8.43-7.75,8.43S177.65,26,177.65,20.4Zm12.44,0c0-4.55-1.73-7-4.69-7s-4.69,2.49-4.69,7,1.67,6.9,4.69,6.9S190.09,25,190.09,20.4Z" transform="translate(-136.95 -3.23)"/><path class="cls-1" d="M202.23,22.37c0,3,.89,4.08,2.76,4.08a7.49,7.49,0,0,0,5.2-2.55h.71v1.74h-1.73l1.19-.51c-1.94,2.61-4.25,3.7-6.46,3.7-2.72,0-4.42-1.63-4.39-6.12l.1-9,.72.64-3.16-.68V12.51l4.89-.44.34.34-.17,4.76Zm8.09,6.29-.47-4,.1-10.94.71.64-3.16-.68V12.51l4.83-.44.34.34-.1,4.76V27.34l-.82-.82,3.16.68v1.19Z" transform="translate(-136.95 -3.23)"/><path class="cls-1" d="M225.83,27.13a3.88,3.88,0,0,0,2.31-.95l.78.92A4.84,4.84,0,0,1,225,28.83c-2.35,0-3.81-1.22-3.81-3.84,0-.82,0-1.53,0-2.86V14h-2.85V12.58l4.21-.54-1.36,1.12,1-5.51h2l-.27,5.95v11C223.92,26.38,224.67,27.13,225.83,27.13Zm2.78-14.85V14h-6.05V12.28Z" transform="translate(-136.95 -3.23)"/><path class="cls-1" d="M422.28,14.15,419,13.57V12.28h7.68v1.29l-3.67.58ZM433,12.28l5,13.29h-.74l4.08-13.29h1.9l-5.54,16.31h-1.19c-3.3-8.43-4.18-11.18-5-13.87h1.22l-5.17,13.87h-1.19l-6.08-16.31h3.06l4.52,13.29h-.75L432,12.28Zm-4.21,1.29V12.28h7.48v1.29l-3.23.58h-.68Zm12.64.58-3.16-.58V12.28h6.22v1.29l-2.38.58Z" transform="translate(-136.95 -3.23)"/><path class="cls-1" d="M447.68,20.4c0-5.64,3.84-8.57,7.75-8.57s7.75,2.93,7.75,8.57-3.91,8.43-7.75,8.43S447.68,26,447.68,20.4Zm12.44,0c0-4.55-1.73-7-4.69-7s-4.69,2.49-4.69,7,1.66,6.9,4.69,6.9S460.12,25,460.12,20.4Z" transform="translate(-136.95 -3.23)"/><path class="cls-1" d="M470.7,21.25v-1.6c0-1.87,0-2.92-.11-4.28l-2.72-.31V13.87l4.63-2,.51.34.41,4.25v4.83c0,2.11,0,5.61.1,7.14h-2.93C470.66,26.86,470.7,23.36,470.7,21.25Zm-2.55,5.95,3.74-.68h.68l3.74.68v1.19h-8.16Zm3.91-10.54H474l-.85.24c1.09-3.16,3.17-5.07,5.17-5.07A2.93,2.93,0,0,1,480.73,13c0,1.6-.62,2.48-2,2.48a3.11,3.11,0,0,1-2-.81l-.91-.79,1.66-.34a8.11,8.11,0,0,0-4.11,5.41h-1.29Z" transform="translate(-136.95 -3.23)"/><path class="cls-1" d="M488.62,3.23l.47.27L489,8.33V21.25q0,3.57.1,7.14h-2.93q.11-3.57.11-7.14v-15L483.41,6V4.76Zm3.16,24v1.19h-8.37V27.2l3.84-.68h.68Zm6.93-14.92L487.59,23.7v-2l9.05-9.45Zm-1.39,14.24,3.74.68v1.19h-4.49l-5.68-9,1.91-2,6.69,10.47Zm-1.94-12.17-3.09-.78V12.28h7.88v1.29l-3.77.58Z" transform="translate(-136.95 -3.23)"/><path class="cls-1" d="M504.42,27.54l-.13-3.71h1.8l.92,4-1.67-.79V25.91a6.44,6.44,0,0,0,4.18,1.39c2.62,0,3.85-1.05,3.85-2.62s-1-2.21-3.17-3l-1.56-.58c-2.48-.91-4.11-2.24-4.11-4.55s2.07-4.73,5.84-4.73a8.62,8.62,0,0,1,4.73,1.4L515,16.66h-1.7l-.68-3.43,1.23.54v.89a5.59,5.59,0,0,0-3.47-1.3c-2.11,0-3.2.92-3.2,2.35s.86,2.11,3.17,3l1,.37c3.4,1.26,4.69,2.86,4.69,5,0,2.52-2.21,4.83-6.56,4.83A10.38,10.38,0,0,1,504.42,27.54Z" transform="translate(-136.95 -3.23)"/><path class="cls-1" d="M738,27.2l3.67-.68-1.12,1.87c.06-1.53.1-5,.1-7.14v-15L737.84,6V4.76l5.1-1.53.47.27-.13,4.83v6.53l.1.44V25.7l-.34,3-5-.34Zm14.07-6.73c0-4.39-1.8-6.77-4.38-6.77-1.23,0-2.89.55-5.38,3l-.3-.61c2-3,4.18-4.29,6.49-4.29,3.61,0,6.46,3.1,6.46,8.33s-3,8.67-7,8.67c-2.07,0-4.18-.92-6-4.45l.3-.55c1.77,2.25,3.61,3.13,5.21,3.13C750,27,752.08,24.85,752.08,20.47Z" transform="translate(-136.95 -3.23)"/><path class="cls-1" d="M762.25,28.39c.07-1.53.1-5,.1-7.14v-1.6c0-1.87,0-2.92-.1-4.28l-2.79-.31V13.87l5.13-2,.51.34-.1,4.59v4.49c0,2.11,0,5.61.1,7.14Zm5.23-1.19v1.19h-7.82V27.2l3.74-.68h.68ZM761.4,5.85a2.25,2.25,0,0,1,4.49,0,2.25,2.25,0,0,1-4.49,0Z" transform="translate(-136.95 -3.23)"/><path class="cls-1" d="M772.07,20.4c0-5.64,3.85-8.57,7.76-8.57s7.75,2.93,7.75,8.57-3.91,8.43-7.75,8.43S772.07,26,772.07,20.4Zm12.45,0c0-4.55-1.74-7-4.69-7s-4.7,2.49-4.7,7,1.67,6.9,4.7,6.9S784.52,25,784.52,20.4Z" transform="translate(-136.95 -3.23)"/><path class="cls-1" d="M1112,20.06c0,4.28,2.28,6.63,5.48,6.63a5.49,5.49,0,0,0,4.76-2.65l.81.41a6.09,6.09,0,0,1-6.29,4.38c-4.65,0-7.58-3.26-7.58-8.46s3.74-8.54,7.79-8.54c3,0,5.54,1.87,6,4.39a1.41,1.41,0,0,1-1.53,1.26,1.75,1.75,0,0,1-1.8-1.53l-.85-3,1.56,1.25a7.07,7.07,0,0,0-3.26-.85C1114.08,13.36,1112,15.71,1112,20.06Z" transform="translate(-136.95 -3.23)"/><path class="cls-1" d="M1127.71,20.4c0-5.64,3.85-8.57,7.76-8.57s7.75,2.93,7.75,8.57-3.91,8.43-7.75,8.43S1127.71,26,1127.71,20.4Zm12.45,0c0-4.55-1.74-7-4.69-7s-4.69,2.49-4.69,7,1.66,6.9,4.69,6.9S1140.16,25,1140.16,20.4Z" transform="translate(-136.95 -3.23)"/><path class="cls-1" d="M1150.63,28.39c.07-1.53.1-5,.1-7.14v-1.6c0-1.87,0-2.92-.1-4.28l-2.72-.31V13.87l4.62-2,.51.34.41,4v5.13c0,2.11,0,5.61.1,7.14Zm5.3-1.19v1.19h-7.82V27.2l3.74-.68h.68Zm7.86-9.08v3.13c0,2.18,0,5.61.1,7.14H1161c.07-1.53.11-5,.11-7.14V18.4c0-3.17-.82-4.19-2.86-4.19-1.7,0-3.09.68-5,2.35h-.71V15h1.73l-1.46.61c1.6-2.14,4.32-3.81,6.73-3.81C1162.39,11.83,1163.79,13.64,1163.79,18.12Zm-.92,8.4,3.4.68v1.19h-7.82V27.2l3.74-.68Z" transform="translate(-136.95 -3.23)"/><path class="cls-1" d="M1176.84,27.13a3.88,3.88,0,0,0,2.32-.95l.78.92a4.86,4.86,0,0,1-3.94,1.73c-2.35,0-3.81-1.22-3.81-3.84,0-.82,0-1.53,0-2.86V14h-2.85V12.58l4.21-.54-1.36,1.12,1-5.51h2l-.27,5.95v11C1174.94,26.38,1175.69,27.13,1176.84,27.13Zm2.79-14.85V14h-6.05V12.28Z" transform="translate(-136.95 -3.23)"/><path class="cls-1" d="M1189.12,19.48a36.39,36.39,0,0,1,5.27-1.42v1.22a29.94,29.94,0,0,0-4.56,1.36c-3.06,1.19-3.4,2.48-3.4,3.47,0,1.8,1.19,2.51,2.76,2.51,1.19,0,1.87-.44,4-2l.68-.51.47.71-1,1c-2,2-3.2,3-5.27,3-2.48,0-4.56-1.43-4.56-4.25C1183.54,22.68,1184.56,21.15,1189.12,19.48Zm3.91,5.78V17.51c0-3.33-1-4.15-3.2-4.15a8,8,0,0,0-3.06.62l1.36-1.06-.88,2.93c-.31,1-.82,1.53-1.74,1.53A1.39,1.39,0,0,1,1184,16c.65-2.59,3.17-4.19,6.57-4.19s5.2,1.6,5.2,5.89v7.2c0,1.53.47,2.08,1.25,2.08a1.69,1.69,0,0,0,1.33-.75l.68.75a3.16,3.16,0,0,1-2.89,1.73C1194.25,28.73,1193,27.37,1193,25.26Z" transform="translate(-136.95 -3.23)"/><path class="cls-1" d="M1205.47,20.06c0,4.28,2.28,6.63,5.48,6.63a5.49,5.49,0,0,0,4.76-2.65l.81.41a6.09,6.09,0,0,1-6.29,4.38c-4.66,0-7.58-3.26-7.58-8.46s3.74-8.54,7.79-8.54c3,0,5.54,1.87,6,4.39a1.41,1.41,0,0,1-1.53,1.26,1.75,1.75,0,0,1-1.8-1.53l-.85-3,1.56,1.25a7.07,7.07,0,0,0-3.26-.85C1207.58,13.36,1205.47,15.71,1205.47,20.06Z" transform="translate(-136.95 -3.23)"/><path class="cls-1" d="M1227.43,27.13a3.88,3.88,0,0,0,2.32-.95l.78.92a4.86,4.86,0,0,1-4,1.73c-2.34,0-3.8-1.22-3.8-3.84,0-.82,0-1.53,0-2.86V14H1220V12.58l4.21-.54-1.36,1.12,1-5.51h2l-.27,5.95v11C1225.53,26.38,1226.28,27.13,1227.43,27.13Zm2.79-14.85V14h-6V12.28Z" transform="translate(-136.95 -3.23)"/></g></g></svg>